Coordinates
version=1
nRows=5
nColumns=63
inDegrees=yes

Units are S.I. units (second, meters, Newtons, ...)
If the header above contains a line with 'inDegrees', this indicates whether rotational values are in degrees (yes) or radians (no).

endheader
time	pelvis_tilt	pelvis_list	pelvis_rotation	pelvis_tx	pelvis_ty	pelvis_tz	hip_flexion_r	hip_adduction_r	hip_rotation_r	knee_angle_r	knee_angle_r_beta	ankle_angle_r	subtalar_angle_r	mtp_angle_r	hip_flexion_l	hip_adduction_l	hip_rotation_l	knee_angle_l	knee_angle_l_beta	ankle_angle_l	subtalar_angle_l	mtp_angle_l	L5_S1_Flex_Ext	L5_S1_Lat_Bending	L5_S1_axial_rotation	L4_L5_Flex_Ext	L4_L5_Lat_Bending	L4_L5_axial_rotation	L3_L4_Flex_Ext	L3_L4_Lat_Bending	L3_L4_axial_rotation	L2_L3_Flex_Ext	L2_L3_Lat_Bending	L2_L3_axial_rotation	L1_L2_Flex_Ext	L1_L2_Lat_Bending	L1_L2_axial_rotation	L1_T12_Flex_Ext	L1_T12_Lat_Bending	L1_T12_axial_rotation	Abs_r3	Abs_r2	Abs_r1	Abs_t1	Abs_t2	neck_flexion	neck_bending	neck_rotation	arm_flex_r	arm_add_r	arm_rot_r	elbow_flex_r	pro_sup_r	wrist_flex_r	wrist_dev_r	arm_flex_l	arm_add_l	arm_rot_l	elbow_flex_l	pro_sup_l	wrist_flex_l	wrist_dev_l
      0.00000000	      0.06813907	     -2.75696479	     98.30711597	      0.17933371	      0.77118441	      0.74995638	     -0.01085718	      0.34119845	    -12.72822334	      6.48206493	      0.11313338	     31.24203973	      8.07073111	      0.00000000	      0.08247159	      1.61830348	     19.89709820	      1.05924334	      0.01848728	     27.97679555	    -12.98947874	      0.00000000	      0.31460269	      0.18704607	     -1.04568855	      0.58424866	      0.24877127	     -1.11104409	      0.51686077	      0.45478381	     -1.11104409	      0.35955942	      0.45478381	     -0.91497748	      0.29214006	      0.38142435	     -0.84962195	      0.17976398	      0.28973436	     -0.78426641	      2.24717559	      2.11590255	     -5.81580601	      0.00000000	      0.00000000	     23.28772295	     -1.46044586	      7.71049939	     29.50202867	     -7.09865850	    101.52281635	     53.26099867	     89.23676162	      8.80000143	      2.86607390	     13.59737559	    -12.02454468	     59.88228381	     68.99403961	     83.66113226	      6.26880813	     10.15930641
      0.01694915	     -0.35920806	     -2.90057530	     96.93991449	      0.18165735	      0.77161923	      0.75045700	      0.61440552	     -0.26060803	    -12.07672409	      7.29339044	      0.12729368	     31.71108363	      8.98612587	      0.00000000	      0.13012869	      2.05478719	     19.59285027	      0.91352455	      0.01594401	     27.63717999	    -13.56138355	      0.00000000	      0.34572082	      0.13992264	     -0.81541021	      0.64203813	      0.18609712	     -0.86637334	      0.56798473	      0.34020792	     -0.86637334	      0.39512432	      0.34020792	     -0.71348393	      0.32103635	      0.28533026	     -0.66252079	      0.19754488	      0.21674018	     -0.61155765	      2.46944924	      1.58283294	     -4.53506694	      0.00000000	      0.00000000	     23.02164253	     -0.68515495	      9.31279673	     28.98870668	     -7.52529843	     99.84324920	     53.14593795	     89.10025353	      9.70418656	      0.62741422	     14.38552839	    -12.66771171	     60.67564022	     68.83014378	     80.74615268	      5.32219912	      8.21759563
      0.03389831	     -0.62702048	     -2.86784911	     96.04304310	      0.18307697	      0.77193459	      0.75094839	      0.83225248	     -0.66165642	    -12.37975453	      7.71422543	      0.13463863	     32.03266297	     10.54369807	      0.00000000	      0.04164268	      2.31525869	     19.62785882	      0.81651628	      0.01425090	     27.35457681	    -14.29339635	      0.00000000	      0.35121466	      0.10660636	     -0.59825014	      0.65224075	      0.14178646	     -0.63564078	      0.57701057	      0.25920271	     -0.63564078	      0.40140324	      0.25920271	     -0.52346887	      0.32613794	      0.21739170	     -0.48607824	      0.20068406	      0.16513326	     -0.44868761	      2.50869123	      1.20595252	     -3.32728781	      0.00000000	      0.00000000	     22.95874287	     -0.74696003	      9.23473996	     28.73044355	     -7.92712599	     98.84530882	     53.27685833	     88.98918661	     10.75868209	     -0.53065422	     16.24976320	    -13.25589799	     64.13663303	     68.64917224	     76.05601478	      1.99973109	      5.84744141
      0.05084746	     -0.83449941	     -2.92756484	     95.13164538	      0.18451997	      0.77191524	      0.75127700	      1.16506479	     -0.99130895	    -12.38534442	      8.14806797	      0.14221061	     32.37561074	     11.79259044	      0.00000000	      0.06007056	      2.52742881	     18.99908310	      0.77600015	      0.01354376	     27.17699454	    -14.46685728	      0.00000000	      0.36147150	      0.08407037	     -0.43431918	      0.67128872	      0.11181359	     -0.46146413	      0.59386152	      0.20440869	     -0.46146413	      0.41312577	      0.20440869	     -0.38002928	      0.33566243	      0.17143629	     -0.35288433	      0.20654481	      0.13022500	     -0.32573938	      2.58195475	      0.95102079	     -2.41555298	      0.00000000	      0.00000000	     23.26754213	     -0.68022737	      9.69613942	     28.70976271	     -8.06809761	     98.76331387	     53.51574048	     88.92873734	     10.82168901	     -1.00058577	     16.86271131	    -13.45605082	     64.82418481	     68.58812148	     76.16147790	      1.88939570	      5.05743883
      0.06779661	     -0.99261844	     -2.96189327	     94.46546991	      0.18559765	      0.77177147	      0.75151413	      1.38251642	     -1.22743304	    -12.34311337	      8.44536754	      0.14739947	     32.55971065	     12.56019443	      0.00000000	      0.05206794	      2.68453426	     18.56416429	      0.74693718	      0.01303651	     27.02897872	    -14.74787250	      0.00000000	      0.36671097	      0.06403614	     -0.30966562	      0.68101894	      0.08516806	     -0.32901972	      0.60246945	      0.15569746	     -0.32901972	      0.41911396	      0.15569746	     -0.27095742	      0.34052780	      0.13058249	     -0.25160332	      0.20953865	      0.09919198	     -0.23224921	      2.61937976	      0.72438959	     -1.72226728	      0.00000000	      0.00000000	     23.71784052	     -0.81802585	      9.61005688	     28.86773891	     -8.06204382	     99.33160365	     53.70830873	     88.92391976	     10.33504847	     -1.47164848	     17.43572049	    -13.57421881	     65.65015429	     68.52716740	     76.81860152	      1.67077006	      4.30558253
